<svg width="43" height="51" viewBox="0 0 43 51" fill="none" xmlns="http://www.w3.org/2000/svg">
  <path d="M34.0182 0.359619L32.9619 2.24573L35.6344 6.17952L34.7226 10.9547L38.3883 16.351L40.432 14.9628L40.1207 21.6156L40.1315 21.6159L39.1354 40.2593C38.9979 42.1038 38.1989 42.6132 37.6183 42.6151C37.039 42.6172 36.1599 42.0723 35.9049 40.2138L34.1875 16.1712L34.1843 16.146C34.0045 14.7018 33.431 13.4857 32.3463 12.7737C31.4179 12.1643 30.2625 11.9301 28.8205 11.8751V11.1092C28.8205 8.6368 28.4037 7.20368 27.6064 6.39941C26.8093 5.59515 25.4018 5.17652 22.9219 5.20102H9.16238C6.69168 5.20102 5.27565 5.62104 4.47492 6.42165C3.67409 7.22248 3.25418 8.63852 3.25418 11.1092V45.4842H0.568634V50.6405H31.5061V45.4842H28.8206V13.8133C30.0267 13.8746 30.8216 14.086 31.2853 14.3902C31.8372 14.7526 32.1224 15.2545 32.2633 16.3739L33.9815 40.4269L33.9857 40.457C34.3203 42.9412 35.8551 44.5551 37.6255 44.5487C39.3958 44.5422 40.8808 42.8742 41.0641 40.3992L41.065 40.3893L42.0755 21.4738L42.0633 21.4732L42.4316 13.6045L42.2883 12.5331L34.0182 0.359619ZM37.171 8.44161L40.1455 12.8197L38.9013 13.6651L36.7722 10.5305L37.171 8.44161ZM5.72488 9.39036H26.3499V17.9841H5.72488V9.39036ZM7.44363 20.4548H24.6311V22.3884H7.44363V20.4548ZM7.44363 23.8923H24.6311V25.8259H7.44363V23.8923Z" fill="#F1F1F1"/>
</svg>
